<svg xmlns="http://www.w3.org/2000/svg" viewBox="0 0 240 234" fill="none">
  <path d="M30 0h180c16.57 0 30 13.43 30 30v174c0 16.57-13.43 30-30 30H30c-16.57 0-30-13.43-30-30V30C0 13.43 13.43 0 30 0z" fill="#B30B00"/>
  <path d="M166.04 89.98c-5.04-5.78-15.56-8.87-30.38-8.87-8.04 0-17.24.97-26.72 2.82-6.3-6.9-12.48-14.85-17.16-22.76 4.68-16.18 7.56-31.14 7.56-41.22 0-11.76-3.84-23.7-14.76-23.7-3.42 0-6.84 2.1-8.58 5.4-4.5 8.52-1.62 26.58 8.04 44.82-3.42 11.34-8.22 24.12-13.38 36.06-5.04 11.58-9.72 21.06-13.62 28.62-12.72 6.06-34.32 17.82-37.2 30.6-1.08 4.68.18 9 3.42 12.06 2.52 2.46 5.94 3.78 9.54 3.78 13.5 0 27.9-18.24 40.68-42.36 5.76-2.1 12.06-4.38 18.18-6.54 7.2-2.52 14.64-5.1 21.6-7.2 15.48 13.32 29.16 17.1 37.26 17.1 11.52 0 15.66-5.94 16.92-10.08 1.62-4.86.54-10.44-3.42-14.76h.02zM31.44 157.68c1.62-7.38 13.14-17.46 22.14-23.76-10.98 19.26-19.26 23.76-22.14 23.76zm54.18-140.4c1.26 0 2.16.36 2.88 1.26 3.6 4.14 2.34 15.84-1.44 30.06-6.48-15.84-5.22-27.54-2.34-30.42.36-.36.54-.72.9-.9zm-6.3 100.44c3.42-6.48 6.84-13.68 10.26-21.6 4.14-9.54 7.2-18.06 9.72-25.56 4.86 7.38 10.8 14.58 16.74 20.7-11.34 3.42-23.76 8.22-36.72 14.4v2.04zm95.58-19.44c-.54 1.62-3.06 4.68-11.16 4.68-7.02 0-15.48-3.6-25.02-10.44 6.12-1.08 11.7-1.62 16.56-1.62 7.38 0 12.24.72 14.94 3.78 2.34 2.7 2.7 4.5.54 9-.18.18-1.08-2.34-4.86-5.4h9z" fill="#fff"/>
</svg>
